<mxfile host="app.diagrams.net" modified="2023-06-18T15:01:24.146Z" agent="Mozilla/5.0 (Windows NT 10.0; Win64; x64) AppleWebKit/537.36 (KHTML, like Gecko) Chrome/114.0.0.0 Safari/537.36" version="21.4.0" etag="EOab6c5zqMHzRMj3oLMM" type="github">
  <diagram name="หน้า-1" id="arSyZO0ikVpfwC0i2BQl">
    <mxGraphModel>
      <root>
        <mxCell id="0" />
        <mxCell id="1" parent="0" />
      </root>
    </mxGraphModel>
  </diagram>
</mxfile>
